<?xml version="1.0" standalone="no"?>
<!DOCTYPE svg PUBLIC "-//W3C//DTD SVG 20010904//EN"
 "http://www.w3.org/TR/2001/REC-SVG-20010904/DTD/svg10.dtd">
<svg version="1.0" xmlns="http://www.w3.org/2000/svg"
 width="547.000000pt" height="547.000000pt" viewBox="0 0 547.000000 547.000000"
 preserveAspectRatio="xMidYMid meet">
<metadata>
Created by potrace 1.14, written by Peter Selinger 2001-2017
</metadata>
<g transform="translate(0.000000,547.000000) scale(0.100000,-0.100000)"
fill="#000000" stroke="none">
<path d="M2708 5425 c-1 -1 -57 -6 -123 -9 -162 -9 -202 -13 -330 -37 -174
-32 -352 -81 -471 -130 -16 -7 -34 -13 -41 -15 -7 -1 -37 -14 -68 -28 -30 -14
-81 -38 -112 -53 -204 -95 -462 -271 -637 -433 -80 -74 -197 -199 -253 -268
-21 -26 -40 -49 -43 -52 -16 -14 -147 -204 -170 -244 -10 -18 -24 -44 -32 -57
-7 -13 -16 -26 -19 -29 -3 -3 -35 -66 -71 -140 -76 -156 -155 -360 -173 -449
-2 -9 -12 -49 -24 -89 -11 -40 -20 -75 -20 -77 -1 -3 -1 -6 -2 -7 0 -2 -2 -12
-3 -23 -3 -22 -13 -83 -22 -130 -25 -143 -36 -479 -19 -625 3 -36 8 -81 10
-100 6 -61 38 -230 60 -319 28 -113 46 -170 85 -277 41 -108 159 -357 202
-424 12 -19 22 -37 23 -40 1 -6 57 -92 65 -100 3 -3 21 -27 40 -55 204 -294
547 -606 839 -763 24 -13 58 -33 75 -43 28 -17 73 -40 86 -44 3 -1 32 -14 65
-29 109 -50 315 -127 378 -141 12 -2 40 -9 62 -15 36 -10 60 -15 105 -25 8 -2
15 -4 15 -5 0 -1 9 -3 20 -4 23 -3 100 -16 130 -22 11 -3 47 -7 80 -10 33 -3
83 -7 110 -10 118 -11 447 -4 525 11 14 3 41 7 60 9 48 6 93 14 175 32 112 24
221 51 245 61 25 10 174 63 186 66 7 2 18 8 26 15 8 6 23 13 34 15 29 5 178
77 186 91 4 6 8 8 8 3 0 -4 17 3 38 16 20 13 47 27 60 31 12 4 22 11 22 16 0
4 8 10 18 14 17 5 52 26 62 36 3 3 39 28 80 55 41 28 84 57 95 66 163 134 395
356 395 378 0 6 4 11 9 11 5 0 43 46 86 103 42 56 83 110 91 120 8 9 14 21 14
26 0 5 3 11 8 13 11 5 121 193 168 288 69 140 159 374 179 465 2 11 8 35 14
53 5 17 8 32 5 32 -3 0 0 9 5 19 6 10 13 34 15 52 3 19 12 75 20 126 9 50 19
122 23 160 10 88 10 460 1 538 -5 33 -10 83 -14 110 -8 74 -50 273 -74 355 -8
25 -14 47 -15 50 -3 14 -27 87 -35 105 -4 11 -23 58 -41 105 -29 74 -126 275
-162 335 -7 11 -25 43 -41 70 -16 28 -32 52 -36 55 -3 3 -16 22 -29 42 -28 47
-149 205 -199 261 -141 159 -419 405 -484 430 -10 3 -18 11 -18 17 0 5 -6 10
-14 10 -7 0 -19 6 -25 14 -7 8 -26 22 -44 31 -18 9 -45 25 -62 35 -60 38 -292
153 -380 187 -73 29 -207 73 -260 87 -5 1 -28 8 -51 14 -22 7 -65 17 -95 23
-30 6 -65 13 -79 16 -32 6 -53 10 -120 18 -30 4 -66 9 -80 11 -14 2 -83 7
-155 10 -71 3 -135 7 -142 9 -6 2 -13 2 -15 0z"/>
</g>
</svg>
